<svg width="512" height="512" viewBox="0 0 512 512" fill="none" xmlns="http://www.w3.org/2000/svg">
<path d="M0 209.157C0 135.945 0 99.3395 13.1305 71.3762C24.6804 46.779 43.1101 26.7809 65.7781 14.248C91.5482 0 125.283 0 192.753 0H319.247C386.717 0 420.452 0 446.222 14.248C468.89 26.7809 487.32 46.779 498.87 71.3762C512 99.3395 512 135.945 512 209.157V302.843C512 376.055 512 412.661 498.87 440.624C487.32 465.221 468.89 485.219 446.222 497.752C420.452 512 386.717 512 319.247 512H192.753C125.283 512 91.5482 512 65.7781 497.752C43.1101 485.219 24.6804 465.221 13.1305 440.624C0 412.661 0 376.055 0 302.843V209.157Z" fill="white"/>
<path fill-rule="evenodd" clip-rule="evenodd" d="M257.246 67.5404C304.375 67.5404 342.58 134.846 342.58 217.872C342.58 220.801 342.524 223.709 342.431 226.596C344.783 227.952 347.132 229.356 349.47 230.821C415.733 272.334 450.348 341.891 426.784 386.179C403.219 430.466 330.4 432.715 264.137 391.202C261.799 389.738 259.504 388.232 257.246 386.7C254.989 388.232 252.694 389.738 250.356 391.202C184.093 432.715 111.273 430.467 87.7091 386.179C64.1449 341.891 98.7596 272.334 165.023 230.821C167.36 229.357 169.709 227.951 172.06 226.596C171.966 223.709 171.913 220.801 171.913 217.872C171.913 134.846 210.118 67.5405 257.246 67.5404ZM176.94 268.813C151.896 285.886 134.042 306.886 124.482 326.096C113.833 347.494 115.835 360.604 119.009 366.57C122.184 372.536 131.646 380.972 154.048 381.664C174.16 382.285 199.845 376.005 225.993 361.006C220.164 355.209 214.813 349.201 209.984 343.055C204.214 336.282 198.941 328.303 194.278 319.323C189.471 310.48 185.757 301.568 183.248 292.789C180.764 285.191 178.649 277.173 176.94 268.813ZM337.55 268.813C335.841 277.174 333.726 285.191 331.242 292.789C328.705 301.666 324.94 310.682 320.054 319.623C315.429 328.48 310.212 336.357 304.507 343.055C299.678 349.201 294.327 355.209 288.497 361.006C314.647 376.006 340.332 382.285 360.444 381.664C382.846 380.972 392.309 372.536 395.484 366.57C398.658 360.604 400.66 347.492 390.011 326.094C380.451 306.883 362.596 285.886 337.55 268.813ZM257.246 240.328C250.978 240.419 244.236 241.149 237.158 242.562C225.926 245.611 220.403 251.17 218.123 255.455C215.842 259.742 214.168 267.715 217.354 279.8C219.773 287.178 222.572 293.894 225.644 299.843C228.846 305.67 232.789 311.621 237.44 317.547C245.489 326.576 252.687 328.987 257.246 328.987C261.806 328.987 269.002 326.575 277.05 317.547C281.702 311.621 285.646 305.67 288.848 299.843C291.923 293.889 294.724 287.165 297.144 279.779C300.323 267.705 298.649 259.739 296.37 255.455C294.09 251.171 288.568 245.611 277.339 242.562C270.26 241.149 263.516 240.419 257.246 240.328ZM257.246 106.757C250.897 106.758 239.434 111.432 227.68 132.138C217.128 150.727 209.297 178.004 208.193 210.077C215.727 207.5 223.189 205.476 230.501 204.011C238.792 201.974 247.798 201.007 257.297 201.113C266.76 201.015 275.731 201.981 283.993 204.011C291.304 205.476 298.765 207.499 306.297 210.074C305.193 178.003 297.364 150.727 286.813 132.138C275.059 111.432 263.595 106.757 257.246 106.757Z" fill="black"/>
</svg>
